<svg xmlns="http://www.w3.org/2000/svg" viewBox="0 0 64 64" role="img" aria-label="Discover Delhi icon">
  <defs>
    <linearGradient id="tower" x1="0" y1="0" x2="1" y2="1">
      <stop offset="0" stop-color="#f97316"/>
      <stop offset="1" stop-color="#dc2626"/>
    </linearGradient>
    <linearGradient id="base" x1="0" y1="0" x2="0" y2="1">
      <stop offset="0" stop-color="#475569"/>
      <stop offset="1" stop-color="#1e293b"/>
    </linearGradient>
  </defs>
  <rect x="9" y="26" width="46" height="28" rx="4" fill="url(#base)"/>
  <rect x="11" y="18" width="10" height="30" rx="2" fill="url(#tower)"/>
  <rect x="27" y="18" width="10" height="30" rx="2" fill="url(#tower)"/>
  <rect x="43" y="18" width="10" height="30" rx="2" fill="url(#tower)"/>
  <polygon points="16,10 22,18 10,18" fill="#f59e0b"/>
  <polygon points="32,10 38,18 26,18" fill="#f59e0b"/>
  <polygon points="48,10 54,18 42,18" fill="#f59e0b"/>
  <rect x="20" y="30" width="24" height="24" rx="2" fill="#334155"/>
  <path d="M26 54V41a6 6 0 0 1 12 0v13" fill="#111827"/>
  <circle cx="15" cy="34" r="2.6" fill="#f8fafc" opacity="0.85"/>
  <circle cx="49" cy="34" r="2.6" fill="#f8fafc" opacity="0.85"/>
</svg>
